# xmcd CD database file
#
# Track frame offsets:
#	183
#	10720
#	24005
#	52405
#	65003
#	81485
#	98025
#	113295
#	129928
#	140763
#	159775
#	171318
#	184823
#	196390
#	212525
#	228625
#	243713
#	262703
#	277185
#	293288
#
# Disc length: 4050 seconds
#
# Revision: 1
# Processed by: cddbd v1.5.1PL0 Copyright (c) Steve Scherf et al.
# Submitted via: CDex 1.51
#
DISCID=140fd014
DTITLE=Sarah Jory - The Early Years
DYEAR=1900
DGENRE=Country
TTITLE0=Sticky Fingers
TTITLE1=Deep In The Heart Of Texas
TTITLE2=Orange Blossom Special
TTITLE3=Jealous Heart
TTITLE4=Under The Boardwalk
TTITLE5=Careless Hands
TTITLE6=Steel Line
TTITLE7=A Way To Survive
TTITLE8=San Antonio Stroll
TTITLE9=She Believes In Me
TTITLE10=Oklohoma Stomp
TTITLE11=Highway 40 Blues
TTITLE12=Rose Colored Glasses
TTITLE13=Blue Jade
TTITLE14=Cold Cold Heart
TTITLE15=The Three OF Us
TTITLE16=In The Garden
TTITLE17=City Lights
TTITLE18=Once Upon A Time In The West
TTITLE19=Remington Ride
EXTD=
EXTT0=
EXTT1=
EXTT2=
EXTT3=
EXTT4=
EXTT5=
EXTT6=
EXTT7=
EXTT8=
EXTT9=
EXTT10=
EXTT11=
EXTT12=
EXTT13=
EXTT14=
EXTT15=
EXTT16=
EXTT17=
EXTT18=
EXTT19=
PLAYORDER=
